<svg width="16" height="16" viewBox="0 0 16 16" fill="none" xmlns="http://www.w3.org/2000/svg">
<path d="M8.00001 10.6668C8.3682 10.6668 8.66668 10.3684 8.66668 10.0002C8.66668 9.63197 8.3682 9.3335 8.00001 9.3335C7.63182 9.3335 7.33334 9.63197 7.33334 10.0002C7.33334 10.3684 7.63182 10.6668 8.00001 10.6668Z" fill="black"/>
<path d="M6.582 3.25386L3.25401 6.58185L3.96112 7.28897L7.28912 3.96097L6.582 3.25386ZM3.25401 9.41784L6.582 12.7458L7.28912 12.0387L3.96112 8.71071L3.25401 9.41784ZM9.41799 12.7458L12.746 9.41784L12.0389 8.71071L8.71086 12.0387L9.41799 12.7458ZM12.746 6.58185L9.41799 3.25386L8.71086 3.96097L12.0389 7.28897L12.746 6.58185ZM12.746 9.41784C13.5291 8.63471 13.5291 7.36497 12.746 6.58185L12.0389 7.28897C12.4315 7.68157 12.4315 8.31811 12.0389 8.71071L12.746 9.41784ZM6.582 12.7458C7.36512 13.529 8.63486 13.529 9.41799 12.7458L8.71086 12.0387C8.31826 12.4313 7.68172 12.4313 7.28912 12.0387L6.582 12.7458ZM3.25401 6.58185C2.47087 7.36497 2.47087 8.63471 3.25401 9.41784L3.96112 8.71071C3.5685 8.31811 3.5685 7.68157 3.96112 7.28897L3.25401 6.58185ZM7.28912 3.96097C7.68172 3.56835 8.31826 3.56835 8.71086 3.96097L9.41799 3.25386C8.63486 2.47072 7.36512 2.47072 6.582 3.25386L7.28912 3.96097Z" fill="black"/>
<path d="M8 5.8335V8.16683" stroke="black" stroke-linecap="square"/>
</svg>
