<svg width="16" height="16" viewBox="0 0 16 16" fill="none" xmlns="http://www.w3.org/2000/svg">
<path d="M8.83333 11.1667H7.16667M3.16667 8.5C3.16667 8.5 3.43933 8.264 4 7.99067M4 7.99067C4.77333 7.61467 6.09267 7.16667 8 7.16667C9.90733 7.16667 11.2267 7.61467 12 7.99067M4 7.99067L4.376 4.36267C4.40998 4.0345 4.56442 3.73059 4.80947 3.50968C5.05451 3.28878 5.37275 3.16656 5.70267 3.16667H10.298C10.6278 3.16673 10.9459 3.28902 11.1908 3.50991C11.4357 3.7308 11.59 4.03462 11.624 4.36267L12 7.99067M12 7.99067C12.5607 8.264 12.8333 8.5 12.8333 8.5M6.83333 11.3333C6.83333 11.7312 6.6753 12.1127 6.39399 12.394C6.11269 12.6753 5.73116 12.8333 5.33333 12.8333C4.93551 12.8333 4.55398 12.6753 4.27267 12.394C3.99137 12.1127 3.83333 11.7312 3.83333 11.3333C3.83333 10.9355 3.99137 10.554 4.27267 10.2727C4.55398 9.99137 4.93551 9.83333 5.33333 9.83333C5.73116 9.83333 6.11269 9.99137 6.39399 10.2727C6.6753 10.554 6.83333 10.9355 6.83333 11.3333V11.3333ZM12.1667 11.3333C12.1667 11.7312 12.0086 12.1127 11.7273 12.394C11.446 12.6753 11.0645 12.8333 10.6667 12.8333C10.2688 12.8333 9.88731 12.6753 9.60601 12.394C9.3247 12.1127 9.16667 11.7312 9.16667 11.3333C9.16667 10.9355 9.3247 10.554 9.60601 10.2727C9.88731 9.99137 10.2688 9.83333 10.6667 9.83333C11.0645 9.83333 11.446 9.99137 11.7273 10.2727C12.0086 10.554 12.1667 10.9355 12.1667 11.3333V11.3333Z" stroke="black" stroke-linecap="square"/>
</svg>
