<svg width="16" height="16" viewBox="0 0 16 16" fill="none" xmlns="http://www.w3.org/2000/svg">
<path d="M5.2085 6.16602V6.79102H6.4585V6.16602H5.2085ZM11.7722 7.17308L11.1903 7.40104L11.6462 8.56493L12.2281 8.33696L11.7722 7.17308ZM6.4585 6.16602V4.33268H5.2085V6.16602H6.4585ZM12.2085 4.33268V6.99935H13.4585V4.33268H12.2085ZM12.2085 6.99935C12.2085 6.89896 12.2653 6.88062 12.1965 6.9418C12.1288 7.00201 11.9946 7.08596 11.7722 7.17308L12.2281 8.33696C12.5255 8.22047 12.808 8.07072 13.027 7.87607C13.2449 7.68238 13.4585 7.38801 13.4585 6.99935H12.2085ZM12.2085 4.33268C12.2085 4.22018 12.2775 4.21248 12.1716 4.29592C12.0728 4.37381 11.891 4.47128 11.6107 4.56471C11.0567 4.7494 10.2515 4.87435 9.3335 4.87435V6.12435C10.3485 6.12435 11.2933 5.98814 12.006 5.75057C12.3591 5.63287 12.6899 5.47895 12.9453 5.27768C13.1937 5.08197 13.4585 4.76735 13.4585 4.33268H12.2085ZM9.3335 4.87435C8.41548 4.87435 7.61031 4.7494 7.05626 4.56471C6.77597 4.47128 6.59423 4.37381 6.4954 4.29592C6.38953 4.21248 6.4585 4.22018 6.4585 4.33268H5.2085C5.2085 4.76735 5.47334 5.08197 5.72168 5.27768C5.97707 5.47895 6.30789 5.63287 6.66098 5.75057C7.37368 5.98814 8.31851 6.12435 9.3335 6.12435V4.87435ZM13.4585 4.33268C13.4585 3.89802 13.1937 3.5834 12.9453 3.38768C12.6899 3.18641 12.3591 3.03249 12.006 2.9148C11.2933 2.67723 10.3485 2.54102 9.3335 2.54102V3.79102C10.2515 3.79102 11.0567 3.91597 11.6107 4.10065C11.891 4.19408 12.0728 4.29156 12.1716 4.36944C12.2775 4.45288 12.2085 4.44518 12.2085 4.33268H13.4585ZM9.3335 2.54102C8.31851 2.54102 7.37368 2.67723 6.66098 2.9148C6.30789 3.03249 5.97707 3.18641 5.72168 3.38768C5.47334 3.5834 5.2085 3.89802 5.2085 4.33268H6.4585C6.4585 4.44518 6.38953 4.45288 6.4954 4.36944C6.59423 4.29156 6.77597 4.19408 7.05626 4.10065C7.61031 3.91597 8.41548 3.79102 9.3335 3.79102V2.54102Z" fill="currentColor"/>
<path d="M10.1665 9.00065V11.6673C10.1665 12.3117 8.5995 12.834 6.6665 12.834C4.73351 12.834 3.1665 12.3117 3.1665 11.6673V9.00065M10.1665 9.00065C10.1665 9.64498 8.5995 10.1673 6.6665 10.1673C4.73351 10.1673 3.1665 9.64498 3.1665 9.00065M10.1665 9.00065C10.1665 8.35632 8.5995 7.83398 6.6665 7.83398C4.73351 7.83398 3.1665 8.35632 3.1665 9.00065" stroke="currentColor" stroke-width="1.25" stroke-linecap="square"/>
</svg>
