<svg width="16" height="16" viewBox="0 0 16 16" fill="none" xmlns="http://www.w3.org/2000/svg">
<path d="M9.83317 4.49935L10.8332 5.49935L12.8332 3.16602M7.49984 4.66602C7.49984 5.06384 7.3418 5.44537 7.0605 5.72668C6.77919 6.00798 6.39766 6.16602 5.99984 6.16602C5.60201 6.16602 5.22048 6.00798 4.93918 5.72668C4.65787 5.44537 4.49984 5.06384 4.49984 4.66602C4.49984 4.26819 4.65787 3.88666 4.93918 3.60536C5.22048 3.32405 5.60201 3.16602 5.99984 3.16602C6.39766 3.16602 6.77919 3.32405 7.0605 3.60536C7.3418 3.88666 7.49984 4.26819 7.49984 4.66602ZM3.1665 9.49935C3.1665 7.66602 3.73317 6.49935 5.99984 6.49935C8.2665 6.49935 8.83317 7.66602 8.83317 9.49935H7.49984V11.4993C7.49984 11.853 7.35936 12.1921 7.10931 12.4422C6.85926 12.6922 6.52013 12.8327 6.1665 12.8327H5.83317C5.47955 12.8327 5.14041 12.6922 4.89036 12.4422C4.64031 12.1921 4.49984 11.853 4.49984 11.4993V9.49935H3.1665Z" stroke="currentColor" stroke-width="1.25" stroke-linecap="square"/>
</svg>
