<svg width="16" height="16" viewBox="0 0 16 16" fill="none" xmlns="http://www.w3.org/2000/svg">
<path d="M12.1666 11.4993H3.83317C3.46498 11.4993 3.1665 11.2009 3.1665 10.8327V8.49935C3.1665 7.76295 3.76346 7.16602 4.49984 7.16602H11.5C12.2364 7.16602 12.8333 7.76295 12.8333 8.49935V10.8327C12.8333 11.2009 12.5348 11.4993 12.1666 11.4993Z" stroke="currentColor" stroke-width="1.25" stroke-linecap="square"/>
<path d="M5.66667 9.33333C5.66667 9.5174 5.51743 9.66667 5.33333 9.66667C5.14924 9.66667 5 9.5174 5 9.33333C5 9.14927 5.14924 9 5.33333 9C5.51743 9 5.66667 9.14927 5.66667 9.33333Z" fill="currentColor" stroke="currentColor" stroke-width="1.25" stroke-linecap="square"/>
<path d="M11.0002 9.33333C11.0002 9.5174 10.8509 9.66667 10.6668 9.66667C10.4828 9.66667 10.3335 9.5174 10.3335 9.33333C10.3335 9.14927 10.4828 9 10.6668 9C10.8509 9 11.0002 9.14927 11.0002 9.33333Z" fill="currentColor" stroke="currentColor" stroke-width="1.25" stroke-linecap="square"/>
<path d="M12.167 7.16602H3.8335L4.31448 4.28015C4.42163 3.63724 4.97788 3.16602 5.62966 3.16602H10.3708C11.0226 3.16602 11.5788 3.63724 11.686 4.28015L12.167 7.16602Z" stroke="currentColor" stroke-width="1.25" stroke-linecap="square"/>
<path d="M4.5 11.834V12.834" stroke="currentColor" stroke-width="1.25" stroke-linecap="square"/>
<path d="M11.5 11.834V12.834" stroke="currentColor" stroke-width="1.25" stroke-linecap="square"/>
</svg>
