<svg width="16" height="17" viewBox="0 0 16 17" fill="none" xmlns="http://www.w3.org/2000/svg">
<path d="M6.16675 5.16675C6.16675 5.99517 5.49517 6.66675 4.66675 6.66675C3.83832 6.66675 3.16675 5.99517 3.16675 5.16675C3.16675 4.33832 3.83832 3.66675 4.66675 3.66675C5.49517 3.66675 6.16675 4.33832 6.16675 5.16675Z" stroke="black" stroke-width="1.25" stroke-linecap="square"/>
<path d="M4.5 6.83325V10.1666" stroke="black" stroke-width="1.25" stroke-linecap="square"/>
<path d="M7.16675 8.66659H10.1667C10.9031 8.66659 11.5001 8.06965 11.5001 7.33325V6.83325" stroke="black" stroke-width="1.25" stroke-linecap="square"/>
<path d="M12.8333 5.16675C12.8333 5.99517 12.1617 6.66675 11.3333 6.66675C10.5049 6.66675 9.83325 5.99517 9.83325 5.16675C9.83325 4.33832 10.5049 3.66675 11.3333 3.66675C12.1617 3.66675 12.8333 4.33832 12.8333 5.16675Z" stroke="black" stroke-width="1.25" stroke-linecap="square"/>
<path d="M6.16675 11.8333C6.16675 12.6617 5.49517 13.3333 4.66675 13.3333C3.83832 13.3333 3.16675 12.6617 3.16675 11.8333C3.16675 11.0049 3.83832 10.3333 4.66675 10.3333C5.49517 10.3333 6.16675 11.0049 6.16675 11.8333Z" stroke="black" stroke-width="1.25" stroke-linecap="square"/>
</svg>
