<svg width="16" height="17" viewBox="0 0 16 17" fill="none" xmlns="http://www.w3.org/2000/svg">
<path d="M14.2601 6.40752C15.0257 6.40752 15.5996 6.70475 15.9817 7.15061C15.764 5.18024 14.8253 3.35996 13.3464 2.03993C11.8675 0.719905 9.95264 -0.00664484 7.9703 4.58011e-05C5.98795 0.00673644 4.07808 0.746195 2.60808 2.07618C1.13808 3.40616 0.211783 5.23273 0.00736175 7.20452C-0.0181946 7.45475 0.0230577 7.70727 0.126913 7.93636C0.266949 8.25273 0.497057 8.52085 0.788518 8.70727C1.07998 8.89368 1.41989 8.99013 1.76582 8.98458C2.11175 8.97903 2.44839 8.87172 2.73372 8.67605C3.01905 8.48038 3.24044 8.20502 3.37025 7.88432C3.40554 7.79266 3.42595 7.69596 3.43073 7.59787C3.43073 7.58427 3.43073 7.57067 3.43401 7.55708C3.54703 6.45949 4.05197 5.43944 4.85623 4.68403C5.66049 3.92862 6.71015 3.4885 7.81266 3.4444C8.91517 3.4003 9.99662 3.75517 10.8586 4.44393C11.7207 5.13269 12.3055 6.10915 12.5058 7.19421C12.8874 6.72679 13.4711 6.40752 14.2601 6.40752Z" fill="black"/>
<path d="M14.4354 7.20429C13.6501 7.12272 12.8967 7.60514 12.6103 8.31307C12.5945 8.35526 12.5847 8.39944 12.5812 8.44434C12.4692 9.52972 11.9736 10.5395 11.1837 11.2923C10.3937 12.045 9.3612 12.4913 8.27168 12.5509C7.18216 12.6105 6.10711 12.2795 5.23977 11.6174C4.37243 10.9554 3.76969 10.0056 3.5399 8.93895C3.16484 9.47857 2.54599 9.85363 1.6871 9.85363C0.998859 9.85363 0.468148 9.61219 0.0888672 9.23994C0.394614 11.1565 1.38407 12.8974 2.87422 14.1408C4.36437 15.3842 6.25438 16.0458 8.19468 16.0034C10.135 15.961 11.9943 15.2173 13.4286 13.91C14.863 12.6027 15.7754 10.8201 15.9971 8.89207C16.0008 8.85779 16.0008 8.8232 15.9971 8.78893C15.9024 7.9877 15.2526 7.28821 14.4354 7.20429Z" fill="black"/>
<path d="M8.1448 9.79155C9.17454 9.79155 10.0093 8.95677 10.0093 7.92702C10.0093 6.89727 9.17454 6.0625 8.1448 6.0625C7.11505 6.0625 6.28027 6.89727 6.28027 7.92702C6.28027 8.95677 7.11505 9.79155 8.1448 9.79155Z" fill="black"/>
</svg>
