<svg width="16" height="16" viewBox="0 0 16 16" fill="none" xmlns="http://www.w3.org/2000/svg">
<path d="M7.99667 4.82213L7.53049 5.23842L8.46284 5.23844L7.99667 4.82213ZM4.20811 4.43981L3.81227 3.95614L3.81227 3.95614L4.20811 4.43981ZM3.7777 8.25947L3.29234 8.65323L3.32038 8.68779L3.35303 8.71803L3.7777 8.25947ZM7.99667 12.1667L7.572 12.6252L7.99667 13.0185L8.42134 12.6252L7.99667 12.1667ZM12.2157 8.25947L12.6403 8.71803L12.673 8.68779L12.701 8.65324L12.2157 8.25947ZM11.7853 4.43981L12.1745 3.95084L12.1745 3.95084L11.7853 4.43981ZM8.46285 4.40583C7.30982 3.11463 5.3222 2.7204 3.81227 3.95614L4.60395 4.92348C5.51557 4.1774 6.75086 4.36536 7.53049 5.23842L8.46285 4.40583ZM3.81227 3.95614C2.34213 5.15932 2.11908 7.20706 3.29234 8.65323L4.26306 7.8657C3.53466 6.96787 3.65254 5.70213 4.60395 4.92348L3.81227 3.95614ZM3.35303 8.71803L7.572 12.6252L8.42135 11.7081L4.20237 7.80091L3.35303 8.71803ZM8.42134 12.6252L12.6403 8.71803L11.791 7.80091L7.572 11.7081L8.42134 12.6252ZM12.701 8.65324C13.8685 7.21428 13.6808 5.15 12.1745 3.95084L11.396 4.92878C12.3529 5.69061 12.4646 6.96066 11.7303 7.86569L12.701 8.65324ZM12.1745 3.95084C10.6503 2.73741 8.68817 3.10952 7.53051 4.40582L8.46284 5.23844C9.23798 4.37047 10.457 4.18124 11.396 4.92878L12.1745 3.95084Z" fill="black"/>
</svg>
