<svg width="16" height="16" viewBox="0 0 16 16" fill="none" xmlns="http://www.w3.org/2000/svg">
<path d="M8.00008 12.8337C10.6695 12.8337 12.8334 10.6697 12.8334 8.00033C12.8334 5.33095 10.6695 3.16699 8.00008 3.16699C5.33071 3.16699 3.16675 5.33095 3.16675 8.00033C3.16675 10.6697 5.33071 12.8337 8.00008 12.8337Z" stroke="black" stroke-linecap="round" stroke-linejoin="round"/>
<path d="M7.99992 10.1663C9.19654 10.1663 10.1666 9.19629 10.1666 7.99967C10.1666 6.80306 9.19654 5.83301 7.99992 5.83301C6.8033 5.83301 5.83325 6.80306 5.83325 7.99967C5.83325 9.19629 6.8033 10.1663 7.99992 10.1663Z" stroke="black" stroke-linecap="round" stroke-linejoin="round"/>
<path d="M4.66675 11.3337L6.33341 9.66699" stroke="black" stroke-linecap="round" stroke-linejoin="round"/>
<path d="M11.3334 11.3337L9.66675 9.66699" stroke="black" stroke-linecap="round" stroke-linejoin="round"/>
<path d="M6.33341 6.33366L4.66675 4.66699" stroke="black" stroke-linecap="round" stroke-linejoin="round"/>
<path d="M9.66675 6.33366L11.3334 4.66699" stroke="black" stroke-linecap="round" stroke-linejoin="round"/>
</svg>
