<svg width="24" height="25" viewBox="0 0 24 25" fill="none" stroke="#000" stroke-width="1.5" stroke-linecap="square"
  xmlns="http://www.w3.org/2000/svg">
  <path d="M11.25 19.75H6.75C5.64543 19.75 4.75 18.8546 4.75 17.75V16.5M4.75 16.5V7.25C4.75 6.14543 5.64543 5.25 6.75 5.25H17.25C18.3546 5.25 19.25 6.14543 19.25 7.25V12.75L16.5856 9.93947C15.7663 8.98581 14.2815 9.01598 13.5013 10.0002L13.4914 10.0129C13.3977 10.1341 11.9621 11.9909 10.9257 13.3094M4.75 16.5L7.49619 13.0067C8.2749 12.0161 10.5856 12.9395 10.5856 12.9395L10.9257 13.3094M10.9257 13.3094L12.25 14.75"/>
  <path d="M17 15.25V19.75"/>
  <path d="M19.25 17.5H14.75"/>
</svg>
