<svg width="16" height="16" viewBox="0 0 16 16" fill="none" xmlns="http://www.w3.org/2000/svg">
<path d="M11.3333 3.1665C11.3333 3.9312 10.598 4.6665 9.83325 4.6665C10.598 4.6665 11.3333 5.4018 11.3333 6.1665C11.3333 5.4018 12.0685 4.6665 12.8333 4.6665C12.0685 4.6665 11.3333 3.9312 11.3333 3.1665Z" stroke="black" stroke-linecap="round"/>
<path d="M11.3333 9.8335C11.3333 10.5982 10.598 11.3335 9.83325 11.3335C10.598 11.3335 11.3333 12.0688 11.3333 12.8335C11.3333 12.0688 12.0685 11.3335 12.8333 11.3335C12.0685 11.3335 11.3333 10.5982 11.3333 9.8335Z" stroke="black" stroke-linecap="round"/>
<path d="M6.00008 5.1665C6.00008 6.61094 4.61119 7.99984 3.16675 7.99984C4.61119 7.99984 6.00008 9.3887 6.00008 10.8332C6.00008 9.3887 7.38895 7.99984 8.83341 7.99984C7.38895 7.99984 6.00008 6.61094 6.00008 5.1665Z" stroke="black" stroke-linecap="round"/>
</svg>
