<svg width="24" height="24" viewBox="0 0 24 24" fill="none" xmlns="http://www.w3.org/2000/svg">
<path d="M12.5 12C12.5 12.2761 12.2761 12.5 12 12.5C11.7239 12.5 11.5 12.2761 11.5 12C11.5 11.7239 11.7239 11.5 12 11.5C12.2761 11.5 12.5 11.7239 12.5 12Z" stroke="black" stroke-linecap="square"/>
<path d="M9.24993 15.25C7.21088 13.5625 7.33603 10.5 9.25002 8.75" stroke="black" stroke-width="1.5" stroke-linecap="square"/>
<path d="M14.7673 15.25C16.8063 13.5625 16.6812 10.5 14.7672 8.75" stroke="black" stroke-width="1.5" stroke-linecap="square"/>
<path d="M7.24999 17.2501C3.91407 13.9141 3.92971 10.0781 7.24994 6.75" stroke="black" stroke-width="1.5" stroke-linecap="square"/>
<path d="M16.7539 17.2501C20.0898 13.9141 20.0742 10.0781 16.754 6.75" stroke="black" stroke-width="1.5" stroke-linecap="square"/>
</svg>
