<svg width="24" height="24" viewBox="0 0 24 24" fill="none" xmlns="http://www.w3.org/2000/svg">
<path d="M14.4643 8.94978L13.934 9.4801L13.934 9.48011L14.4643 8.94978ZM14.4643 7.53557L13.934 7.00523L13.934 7.00525L14.4643 7.53557ZM16.8346 5.16532L17.3649 5.69566L17.1588 4.489L16.8346 5.16532ZM11.1652 10.8347L11.6955 11.365L12.0711 10.9895L11.8415 10.5105L11.1652 10.8347ZM5.16397 16.8359L4.63364 16.3056L4.63364 16.3056L5.16397 16.8359ZM5.16397 18.8359L5.69431 18.3056L5.69426 18.3055L5.16397 18.8359ZM7.16397 18.8359L6.63364 18.3056L6.63364 18.3056L7.16397 18.8359ZM13.1652 12.8347L13.4894 12.1584L13.0104 11.9288L12.6349 12.3044L13.1652 12.8347ZM18.8447 7.18645L19.5228 6.86604L18.3144 6.65611L18.8447 7.18645ZM16.4799 9.55116L15.9496 9.02082L15.9496 9.02085L16.4799 9.55116ZM15.0657 9.55117L15.596 9.02085L15.596 9.02084L15.0657 9.55117ZM14.9946 8.41946C14.897 8.32183 14.897 8.16352 14.9946 8.06589L13.934 7.00525C13.2506 7.68866 13.2506 8.79669 13.934 9.4801L14.9946 8.41946ZM14.9946 8.06591L17.3649 5.69566L16.3043 4.63498L13.934 7.00523L14.9946 8.06591ZM17.1588 4.489C16.5044 4.17531 15.7716 4 14.9999 4V5.5C15.5424 5.5 16.0541 5.62289 16.5104 5.84164L17.1588 4.489ZM14.9999 4C12.2385 4 9.9999 6.23858 9.9999 9H11.4999C11.4999 7.067 13.0669 5.5 14.9999 5.5V4ZM9.9999 9C9.9999 9.77163 10.1752 10.5044 10.4889 11.1589L11.8415 10.5105C11.6228 10.0542 11.4999 9.54247 11.4999 9H9.9999ZM10.6349 10.3044L4.63364 16.3056L5.6943 17.3662L11.6955 11.365L10.6349 10.3044ZM4.63364 16.3056C3.78849 17.1507 3.78842 18.5211 4.63369 19.3663L5.69426 18.3055C5.43495 18.0463 5.43488 17.6257 5.69431 17.3662L4.63364 16.3056ZM4.63363 19.3662C5.47881 20.2114 6.84913 20.2114 7.69431 19.3662L6.63364 18.3056C6.37424 18.565 5.9537 18.565 5.69431 18.3056L4.63363 19.3662ZM7.6943 19.3662L13.6955 13.365L12.6349 12.3044L6.63364 18.3056L7.6943 19.3662ZM12.841 13.511C13.4955 13.8247 14.2283 14 14.9999 14V12.5C14.4575 12.5 13.9457 12.3771 13.4894 12.1584L12.841 13.511ZM14.9999 14C17.7613 14 19.9999 11.7614 19.9999 9H18.4999C18.4999 10.933 16.9329 12.5 14.9999 12.5V14ZM19.9999 9C19.9999 8.2382 19.8291 7.51419 19.5228 6.86604L18.1666 7.50686C18.3801 7.95879 18.4999 8.46434 18.4999 9H19.9999ZM18.3144 6.65611L15.9496 9.02082L17.0102 10.0815L19.375 7.71679L18.3144 6.65611ZM15.9496 9.02085C15.8519 9.11846 15.6936 9.11846 15.596 9.02085L14.5354 10.0815C15.2188 10.7649 16.3269 10.7649 17.0103 10.0815L15.9496 9.02085ZM15.596 9.02084L14.9946 8.41945L13.934 9.48011L14.5354 10.0815L15.596 9.02084Z" fill="black"/>
</svg>
