<svg xmlns="http://www.w3.org/2000/svg" xmlns:xlink="http://www.w3.org/1999/xlink"><defs><svg fill="none" viewBox="0 0 16 16" id="alertSmall" xmlns="http://www.w3.org/2000/svg"><path d="M8 10.667a.667.667 0 1 0 0-1.333.667.667 0 0 0 0 1.333ZM6.582 3.254 3.254 6.582l.707.707L7.29 3.961l-.707-.707ZM3.254 9.418l3.328 3.328.707-.707L3.961 8.71l-.707.707Zm6.164 3.328 3.328-3.328-.707-.707-3.328 3.328.707.707Zm3.328-6.164L9.418 3.254l-.707.707 3.328 3.328.707-.707Zm0 2.836a2.005 2.005 0 0 0 0-2.836l-.707.707c.393.393.393 1.03 0 1.422l.707.707Zm-6.164 3.328a2.005 2.005 0 0 0 2.836 0l-.707-.707a1.005 1.005 0 0 1-1.422 0l-.707.707ZM3.254 6.582a2.005 2.005 0 0 0 0 2.836l.707-.707a1.005 1.005 0 0 1 0-1.422l-.707-.707ZM7.289 3.96a1.005 1.005 0 0 1 1.422 0l.707-.707a2.005 2.005 0 0 0-2.836 0l.707.707Z" fill="currentColor"/><path d="M8 5.833v2.334" stroke="currentColor" stroke-linecap="square"/></svg><svg fill="none" viewBox="0 0 24 24" id="annotationWarning"><path stroke="currentColor" stroke-linecap="round" stroke-linejoin="round" d="M4.75 6.75a2 2 0 0 1 2-2h10.5a2 2 0 0 1 2 2v7.5a2 2 0 0 1-2 2h-2.625l-2.625 3-2.625-3H6.75a2 2 0 0 1-2-2v-7.5Z"/><path stroke="currentColor" stroke-linecap="round" stroke-linejoin="round" d="M12 8v2"/><path stroke="currentColor" stroke-linecap="round" stroke-linejoin="round" d="M12.5 13a.5.5 0 1 1-1 0 .5.5 0 0 1 1 0Z"/></svg><svg fill="none" viewBox="0 0 16 16" id="anonymousSmall" xmlns="http://www.w3.org/2000/svg"><path d="M8.833 11.167H7.167m-4-2.667s.272-.236.833-.51m0 0c.773-.375 2.093-.823 4-.823s3.227.448 4 .824m-8 0 .376-3.628a1.333 1.333 0 0 1 1.327-1.196h4.595a1.333 1.333 0 0 1 1.326 1.196L12 7.99m0 0c.56.273.833.509.833.509m-6 2.833a1.5 1.5 0 1 1-3 0 1.5 1.5 0 0 1 3 0v0Zm5.334 0a1.5 1.5 0 1 1-3 0 1.5 1.5 0 0 1 3 0v0Z" stroke="currentColor" stroke-linecap="square"/></svg><svg fill="none" viewBox="0 0 16 16" id="apiChargers" xmlns="http://www.w3.org/2000/svg"><g stroke="currentColor" stroke-linecap="square"><path d="M4.5 7.561V5.166h7v2.395c0 .708-.28 1.386-.781 1.886L9.5 10.666v1.5a.667.667 0 0 1-.667.667H7.167a.667.667 0 0 1-.667-.667v-1.5L5.281 9.447c-.5-.5-.781-1.178-.781-1.886ZM6.5 5V3.165M9.5 5V3.165"/></g></svg><svg fill="none" viewBox="0 0 16 16" id="apiChargingLocations" xmlns="http://www.w3.org/2000/svg"><path d="M12.167 7.333c0 2.666-4.167 5.5-4.167 5.5s-4.167-2.834-4.167-5.5c0-2.334 1.958-4.167 4.167-4.167 2.21 0 4.167 1.833 4.167 4.167Z" stroke="currentColor" stroke-linecap="round"/><path d="M8 8.834a1.5 1.5 0 1 0 0-3 1.5 1.5 0 0 0 0 3Z" stroke="currentColor" stroke-linecap="round"/></svg><svg fill="none" viewBox="0 0 16 16" id="apiFallback" xmlns="http://www.w3.org/2000/svg"><path d="m3.167 5.333-.256-.57v1.14l.256-.57ZM8 3.166l.255-.57L8 2.48l-.256.115.256.57Zm4.833 2.167.256.57v-1.14l-.256.57ZM8 7.499l-.256.57.256.115.255-.114L8 7.5ZM3.422 5.903l4.833-2.167-.51-1.14L2.91 4.762l.511 1.141Zm4.322-2.167 4.834 2.167.51-1.14-4.832-2.167-.512 1.14Zm4.834 1.026L7.744 6.93l.511 1.14 4.834-2.166-.511-1.14ZM8.256 6.93 3.421 4.762l-.511 1.141L7.744 8.07l.511-1.141Z" fill="currentColor"/><path d="M3.167 10.666 8 12.833l4.833-2.167" stroke="currentColor" stroke-linecap="square"/><path d="M12.834 5.334v5.333M3.167 5.334v5.333" stroke="currentColor" stroke-linecap="square" stroke-linejoin="bevel"/><path d="M8 7.666v5" stroke="currentColor" stroke-linecap="square"/></svg><svg fill="none" viewBox="0 0 16 16" id="apiHvac" xmlns="http://www.w3.org/2000/svg"><path d="M7.167 3.166c-.737 0-1.334.597-1.334 1.333v3.096a2.833 2.833 0 1 0 3 0V4.5c0-.736-.597-1.333-1.333-1.333h-.333ZM11.5 3.166h-.334M11.5 5.166h-.334M11.5 7.166h-.334M7.333 10.166v-1.5" stroke="currentColor" stroke-linecap="square"/></svg><svg fill="none" viewBox="0 0 16 16" id="apiMe" xmlns="http://www.w3.org/2000/svg"><path d="M8 7.5a2.167 2.167 0 1 0 0-4.334A2.167 2.167 0 0 0 8 7.5ZM4.565 12.834h6.87c.761 0 1.348-.655.992-1.328-.523-.99-1.715-2.172-4.427-2.172-2.712 0-3.904 1.182-4.427 2.172-.356.673.23 1.328.992 1.328Z" stroke="currentColor" stroke-linecap="round"/></svg><svg fill="none" viewBox="0 0 16 16" id="apiSchedules" xmlns="http://www.w3.org/2000/svg"><path d="M8 12.835a4.833 4.833 0 1 0 0-9.667 4.833 4.833 0 0 0 0 9.667Z" stroke="currentColor"/><path d="M8 5.332v2.667l1.333 1.333" stroke="currentColor"/></svg><svg fill="none" viewBox="0 0 16 16" id="apiServiceHealth" xmlns="http://www.w3.org/2000/svg"><path clip-rule="evenodd" d="M7.997 4.823C7.03 3.74 5.418 3.45 4.207 4.44c-1.21.991-1.38 2.648-.43 3.82l4.22 3.907 4.219-3.907c.95-1.172.8-2.839-.43-3.82-1.232-.98-2.823-.7-3.79.383Z" stroke="currentColor" stroke-linecap="round"/></svg><svg fill="none" viewBox="0 0 16 16" id="apiSolarInverters" xmlns="http://www.w3.org/2000/svg"><path d="M8 10.167a2.167 2.167 0 1 0 0-4.333 2.167 2.167 0 0 0 0 4.333ZM8 1.834v1M11.5 4.5l-.79.79M14.166 8h-1M11.5 11.5l-.79-.79M8 13.166v1M5.29 10.71l-.79.79M2.833 8h-1M5.29 5.29 4.5 4.5" stroke="currentColor" stroke-linecap="square"/></svg><svg fill="none" viewBox="0 0 16 16" id="apiStatistics" xmlns="http://www.w3.org/2000/svg"><path d="M3.167 4.5c0-.737.596-1.334 1.333-1.334h7c.736 0 1.333.597 1.333 1.333v7c0 .737-.597 1.334-1.333 1.334h-7a1.333 1.333 0 0 1-1.333-1.334v-7ZM5.833 10.167V6.5M10.166 10.167V6.5M8 10.167V8.5" stroke="currentColor" stroke-linecap="square"/></svg><svg fill="none" viewBox="0 0 16 16" id="apiTariffs" xmlns="http://www.w3.org/2000/svg"><path d="M5.208 6.166v.625h1.25v-.625h-1.25Zm6.564 1.007-.582.228.456 1.164.582-.228-.456-1.164ZM6.458 6.166V4.333h-1.25v1.833h1.25Zm5.75-1.833v2.666h1.25V4.333h-1.25Zm0 2.666c0-.1.057-.118-.011-.057-.068.06-.202.144-.425.231l.456 1.164c.297-.117.58-.266.799-.46.218-.195.432-.489.432-.878h-1.25Zm0-2.666c0-.113.07-.12-.036-.037-.1.078-.281.175-.561.269-.554.184-1.36.31-2.277.31v1.25c1.014 0 1.96-.137 2.672-.374.353-.118.684-.272.94-.473.248-.196.513-.51.513-.945h-1.25Zm-2.874.541c-.919 0-1.724-.125-2.278-.31-.28-.093-.462-.19-.56-.268-.106-.084-.038-.076-.038.037h-1.25c0 .434.265.749.514.945.255.201.586.355.939.473.713.237 1.658.373 2.673.373v-1.25Zm4.125-.541c0-.435-.265-.75-.514-.945-.255-.202-.586-.356-.939-.473-.713-.238-1.658-.374-2.672-.374v1.25c.918 0 1.723.125 2.277.31.28.093.462.19.56.268.107.084.038.076.038-.036h1.25ZM9.334 2.54c-1.015 0-1.96.136-2.673.374-.353.117-.684.271-.94.473-.248.195-.513.51-.513.945h1.25c0 .112-.068.12.037.036.1-.077.281-.175.561-.268.554-.185 1.36-.31 2.278-.31v-1.25Z" fill="currentColor"/><path d="M10.166 9v2.667c0 .645-1.566 1.167-3.5 1.167-1.932 0-3.5-.522-3.5-1.167V9.001m7 0c0 .644-1.566 1.166-3.5 1.166-1.932 0-3.5-.522-3.5-1.166m7 0c0-.645-1.566-1.167-3.5-1.167-1.932 0-3.5.522-3.5 1.167" stroke="currentColor" stroke-linecap="square"/></svg><svg fill="none" viewBox="0 0 16 16" id="apiUserManagement" xmlns="http://www.w3.org/2000/svg"><path d="m9.833 4.5 1 1 2-2.334M7.5 4.666a1.5 1.5 0 1 1-3 0 1.5 1.5 0 0 1 3 0ZM3.167 9.499c0-1.833.566-3 2.833-3 2.267 0 2.833 1.167 2.833 3H7.5v2a1.333 1.333 0 0 1-1.333 1.334h-.334A1.334 1.334 0 0 1 4.5 11.499v-2H3.167Z" stroke="currentColor" stroke-linecap="square"/></svg><svg fill="none" viewBox="0 0 16 16" id="apiVehicles" xmlns="http://www.w3.org/2000/svg"><path d="M12.167 11.5H3.833a.667.667 0 0 1-.667-.667V8.499c0-.736.597-1.333 1.334-1.333h7c.736 0 1.333.597 1.333 1.333v2.334a.667.667 0 0 1-.666.666Z" stroke="currentColor" stroke-linecap="square"/><path d="M5.667 9.333a.333.333 0 1 1-.667 0 .333.333 0 0 1 .667 0ZM11 9.333a.333.333 0 1 1-.667 0 .333.333 0 0 1 .667 0Z" fill="currentColor" stroke="currentColor" stroke-linecap="square"/><path d="M12.167 7.166H3.833l.481-2.886A1.333 1.333 0 0 1 5.63 3.166h4.74c.653 0 1.209.471 1.316 1.114l.481 2.886ZM4.5 11.834v1M11.5 11.834v1" stroke="currentColor" stroke-linecap="square"/></svg><svg fill="none" viewBox="0 0 16 16" id="apiWebhooks" xmlns="http://www.w3.org/2000/svg"><path d="M8 12.833a4.833 4.833 0 1 0 0-9.667 4.833 4.833 0 0 0 0 9.667Z" stroke="currentColor" stroke-linecap="round" stroke-linejoin="round"/><path d="M10.167 8c0 3-1.338 4.833-2.167 4.833-.828 0-2.167-1.834-2.167-4.834 0-3 1.339-4.833 2.167-4.833.829 0 2.167 1.833 2.167 4.833ZM3.333 8h9.334" stroke="currentColor" stroke-linecap="round" stroke-linejoin="round"/></svg><svg fill="none" viewBox="0 0 16 16" id="arrow-circle" xmlns="http://www.w3.org/2000/svg"><path d="M12.833 8a4.833 4.833 0 1 1-9.666 0 4.833 4.833 0 0 1 9.666 0Z" stroke="currentColor" stroke-opacity=".8" stroke-linecap="square" stroke-linejoin="round"/><path d="M9.5 8.833V6.5H7.167" stroke="currentColor" stroke-opacity=".8" stroke-linecap="square"/><path d="M9 7 6.5 9.5" stroke="currentColor" stroke-opacity=".8" stroke-linecap="square" stroke-linejoin="round"/></svg><svg fill="none" viewBox="0 0 24 24" id="arrowLeft" xmlns="http://www.w3.org/2000/svg"><path d="M10.25 6.75 4.75 12l5.5 5.25M19.25 12H5" stroke="currentColor" stroke-linecap="round" stroke-linejoin="round"/></svg><svg fill="none" viewBox="0 0 24 24" id="book" xmlns="http://www.w3.org/2000/svg"><path d="m12 6.75-7.25-2v12.5l7.25 2M12 7v12M12 6.75l7.25-2v12.5l-7.25 2" stroke="currentColor" stroke-linecap="round" stroke-linejoin="round"/></svg><svg fill="none" viewBox="0 0 24 24" id="box" xmlns="http://www.w3.org/2000/svg"><path d="M4.75 8 12 4.75 19.25 8 12 11.25 4.75 8ZM12 11.5V19M4.75 16 12 19.25 19.25 16M19.25 8v8M4.75 8v8" stroke="currentColor" stroke-linecap="round" stroke-linejoin="round"/></svg><svg fill="none" viewBox="0 0 16 17" id="branch" xmlns="http://www.w3.org/2000/svg"><path d="M6.167 5.167a1.5 1.5 0 1 1-3 0 1.5 1.5 0 0 1 3 0ZM4.5 6.833v3.334M7.167 8.667h3c.736 0 1.333-.597 1.333-1.334v-.5M12.833 5.167a1.5 1.5 0 1 1-3 0 1.5 1.5 0 0 1 3 0ZM6.167 11.833a1.5 1.5 0 1 1-3 0 1.5 1.5 0 0 1 3 0Z" stroke="currentColor" stroke-linecap="square"/></svg><svg fill="none" viewBox="0 0 24 24" id="breaking-changes" xmlns="http://www.w3.org/2000/svg"><path d="M17.75 12.25 18 12a4.243 4.243 0 1 0-6-6l-.25.25M6.25 11.75 6 12a4.243 4.243 0 1 0 6 6l.25-.25M8.25 4.75v1.5M15.75 17.75v1.5M6.25 8.25h-1.5M19.25 15.75h-1.5" stroke="currentColor" stroke-linecap="square" stroke-linejoin="round"/></svg><svg fill="none" viewBox="0 0 24 24" id="capabilities" xmlns="http://www.w3.org/2000/svg"><path d="M12.25 4.75h-5.5a2 2 0 0 0-2 2v5.5a2 2 0 0 0 2 2h5.5a2 2 0 0 0 2-2v-5.5a2 2 0 0 0-2-2Z" stroke="currentColor" stroke-linecap="round" stroke-linejoin="round"/><path d="M19.25 17.25v-5.5a2 2 0 0 0-2-2h-5.5a2 2 0 0 0-2 2v5.5a2 2 0 0 0 2 2h5.5a2 2 0 0 0 2-2Z" stroke="currentColor" stroke-linecap="round" stroke-linejoin="round"/></svg><svg fill="none" viewBox="0 0 24 24" id="car" xmlns="http://www.w3.org/2000/svg"><path d="M18.25 17.25H5.75a1 1 0 0 1-1-1v-3.5a2 2 0 0 1 2-2h10.5a2 2 0 0 1 2 2v3.5a1 1 0 0 1-1 1Z" stroke="currentColor" stroke-linecap="round" stroke-linejoin="round"/><path d="M8.5 14a.5.5 0 1 1-1 0 .5.5 0 0 1 1 0ZM16.5 14a.5.5 0 1 1-1 0 .5.5 0 0 1 1 0Z" stroke="currentColor" stroke-linecap="round" stroke-linejoin="round"/><path d="M18.25 10.75H5.75l.721-4.329A2 2 0 0 1 8.444 4.75h7.112a2 2 0 0 1 1.973 1.671l.721 4.329ZM6.75 17.75v1.5M17.25 17.75v1.5" stroke="currentColor" stroke-linecap="round" stroke-linejoin="round"/></svg><svg fill="none" viewBox="0 0 24 24" id="changelog" xmlns="http://www.w3.org/2000/svg"><path d="m1.748 12 2.475 2.476.707.707.707-.707L8.112 12" stroke="currentColor" stroke-linecap="square"/><path d="M8.577 18.393a7.25 7.25 0 1 0-3.329-3.747" stroke="currentColor"/><path d="M12 8v4l2 2" stroke="currentColor"/></svg><svg fill="none" viewBox="0 0 24 24" id="chart"><path stroke="currentColor" stroke-linecap="round" stroke-linejoin="round" d="M4.75 6.75a2 2 0 0 1 2-2h10.5a2 2 0 0 1 2 2v10.5a2 2 0 0 1-2 2H6.75a2 2 0 0 1-2-2V6.75ZM8.75 15.25v-5.5M15.25 15.25v-5.5M12 15.25v-2.5"/></svg><svg fill="none" viewBox="0 0 16 16" id="check-circle" xmlns="http://www.w3.org/2000/svg"><path d="M12.833 8a4.833 4.833 0 1 1-9.666 0 4.833 4.833 0 0 1 9.666 0Z" stroke="currentColor" stroke-linecap="square" stroke-linejoin="round"/><path d="m5.833 8 1.5 1.5 2.834-3" stroke="currentColor" stroke-linecap="square"/></svg><svg fill="none" viewBox="0 0 16 16" id="checkInner" xmlns="http://www.w3.org/2000/svg"><path d="m5 8.25 2.25 2.25L11.5 6" stroke="currentColor" stroke-linecap="square"/></svg><svg fill="none" viewBox="0 0 16 16" id="checkSmall" xmlns="http://www.w3.org/2000/svg"><circle cx="8" cy="8" r="6" fill="currentColor"/><path d="m5 8 2.077 2L11 6" stroke="#fff" stroke-linecap="square"/></svg><svg fill="none" viewBox="0 0 24 24" id="checkmark" xmlns="http://www.w3.org/2000/svg"><path d="m7.75 12.75 2.25 2.5 6.25-6.5" stroke="currentColor" stroke-linecap="round" stroke-linejoin="round"/></svg><svg fill="none" viewBox="0 0 24 24" id="chevron" xmlns="http://www.w3.org/2000/svg"><path d="M15.25 10.75 12 14.25l-3.25-3.5" stroke="currentColor" stroke-linecap="round" stroke-linejoin="round"/></svg><svg fill="none" viewBox="0 0 16 16" id="chevron-right" xmlns="http://www.w3.org/2000/svg"><g clip-path="url(#bea)"><path d="m7 5 3 3-3 3" stroke="currentColor" stroke-linecap="square"/></g><defs><clipPath id="bea"><rect width="16" height="16" fill="#fff"/></clipPath></defs></svg><svg fill="none" viewBox="0 0 24 24" id="code" xmlns="http://www.w3.org/2000/svg"><path d="m15.75 8.75 3.5 3.25-3.5 3.25m-7.5-6.5L4.75 12l3.5 3.25m5-9.5-2.5 12.5" stroke="currentColor" stroke-linecap="square"/></svg><svg fill="none" viewBox="0 0 24 24" id="copy"><path stroke="currentColor" stroke-linecap="round" stroke-linejoin="round" d="M6.5 15.25v0a1.75 1.75 0 0 1-1.75-1.75V6.75a2 2 0 0 1 2-2h6.75c.966 0 1.75.784 1.75 1.75v0"/><rect width="10.5" height="10.5" x="8.75" y="8.75" stroke="currentColor" stroke-linecap="round" stroke-linejoin="round" rx="2"/></svg><svg fill="none" viewBox="0 0 24 24" id="cursorClick" xmlns="http://www.w3.org/2000/svg"><path d="M8.75 8.75 13 19.25l1.25-5 5-1.25-10.5-4.25ZM15 15l4.25 4.25M4.75 4.75l1.5 1.5M13.25 4.75l-1.5 1.5M17.75 17.75l1.5 1.5M6.25 11.75l-1.5 1.5" stroke="currentColor" stroke-linecap="round" stroke-linejoin="round"/></svg><svg fill="none" viewBox="0 0 24 24" id="databaseError" xmlns="http://www.w3.org/2000/svg"><path d="M19.25 7c0 1.105-3.384 2.25-7.25 2.25S4.75 8.105 4.75 7 8.134 4.75 12 4.75 19.25 5.895 19.25 7ZM19.25 10.25V7M4.75 17V7M9.25 14.061C7 14 4.75 12.834 4.75 12M9.25 19.25C7 19.189 4.75 17.834 4.75 17M19.25 16a3.25 3.25 0 1 1-6.5 0 3.25 3.25 0 0 1 6.5 0ZM14 14l4 4" stroke="currentColor" stroke-linecap="round" stroke-linejoin="round"/></svg><svg fill="none" viewBox="0 0 16 16" id="declineSmall" xmlns="http://www.w3.org/2000/svg"><circle cx="8" cy="8" r="6" fill="currentColor"/><path d="m5.75 10.25 4.5-4.5M10.25 10.25l-4.5-4.5" stroke="#fff" stroke-linecap="square" stroke-linejoin="round"/></svg><svg fill="none" viewBox="0 0 24 24" id="download"><path stroke="currentColor" stroke-linecap="round" stroke-linejoin="round" d="M4.75 14.75v1.5a3 3 0 0 0 3 3h8.5a3 3 0 0 0 3-3v-1.5M12 14.25v-9.5M8.75 10.75l3.25 3.5 3.25-3.5"/></svg><svg fill="none" viewBox="0 0 24 24" id="empty" xmlns="http://www.w3.org/2000/svg"><rect x="5" y="5" width="14" height="14" rx="4" stroke="#A62800" stroke-dasharray="3 3"/></svg><svg fill="none" viewBox="0 0 16 17" id="enode" xmlns="http://www.w3.org/2000/svg"><path d="M14.26 6.408c.766 0 1.34.297 1.722.743a8.033 8.033 0 0 0-15.975.054c-.025.25.016.502.12.731a1.761 1.761 0 0 0 3.243-.052.922.922 0 0 0 .06-.286c0-.014 0-.027.004-.04a4.586 4.586 0 0 1 9.072-.364c.381-.467.965-.786 1.754-.786Z" fill="currentColor"/><path d="M14.435 7.204c-.785-.081-1.538.401-1.825 1.11a.48.48 0 0 0-.029.13 4.584 4.584 0 0 1-9.041.495c-.375.54-.994.915-1.853.915C1 9.854.468 9.612.09 9.24a8.03 8.03 0 0 0 15.908-.348.48.48 0 0 0 0-.103c-.095-.801-.744-1.5-1.562-1.585Z" fill="currentColor"/><path d="M8.145 9.792a1.865 1.865 0 1 0 0-3.73 1.865 1.865 0 0 0 0 3.73Z" fill="currentColor"/></svg><svg fill="none" viewBox="0 0 16 16" id="external" xmlns="http://www.w3.org/2000/svg"><path d="M6.167 3.167H4.5c-.737 0-1.333.597-1.333 1.333v7c0 .737.596 1.334 1.333 1.334h7c.736 0 1.333-.597 1.333-1.334V9.834M12.834 6.167v-3h-3M12.667 3.333 7.834 8.166" stroke="currentColor" stroke-linecap="round" stroke-linejoin="round"/></svg><svg fill="none" viewBox="0 0 24 24" id="eye"><path stroke="currentColor" stroke-linecap="round" stroke-linejoin="round" d="M19.25 12c0 1-1.75 6.25-7.25 6.25S4.75 13 4.75 12 6.5 5.75 12 5.75 19.25 11 19.25 12Z"/><circle cx="12" cy="12" r="2.25" stroke="currentColor" stroke-linecap="round" stroke-linejoin="round"/></svg><svg fill="none" viewBox="0 0 24 24" id="eye-cross"><path stroke="currentColor" stroke-linecap="round" stroke-linejoin="round" d="M18.625 10c.44.899.625 1.675.625 2 0 1-1.75 6.25-7.25 6.25a7.621 7.621 0 0 1-2-.256m-3-1.725C5.362 14.669 4.75 12.59 4.75 12c0-1 1.75-6.25 7.25-6.25 1.795 0 3.19.559 4.256 1.347M19.25 4.75l-14.5 14.5"/><path stroke="currentColor" stroke-linecap="round" stroke-linejoin="round" d="M10.409 13.591a2.25 2.25 0 0 1 3.182-3.182"/></svg><svg fill="none" viewBox="0 0 24 24" id="fingerprint" xmlns="http://www.w3.org/2000/svg"><path d="M19.25 19.25V12c0-2.591-1.408-5.04-3.5-6.25m-11 9v4.5M4.75 12.25C4.5 7.5 8.134 4.75 12 4.75M12 8.75c1.795 0 3.25 1.25 3.25 3.5M15.25 14.75v1.5M8.75 15.75v1.5c0 1.25-1 2-1 2M11.75 12.75v3.5c0 1.75.8 3 3 3M9.116 10.5A3.236 3.236 0 0 0 8.75 12v1.25" stroke="currentColor" stroke-linecap="round" stroke-linejoin="round"/></svg><svg fill="none" viewBox="0 0 24 24" id="globe" xmlns="http://www.w3.org/2000/svg"><path d="M12 19.25a7.25 7.25 0 1 0 0-14.5 7.25 7.25 0 0 0 0 14.5Z" stroke="currentColor" stroke-linecap="round" stroke-linejoin="round"/><path d="M15.25 12c0 4.5-2.007 7.25-3.25 7.25-1.243 0-3.25-2.75-3.25-7.25S10.757 4.75 12 4.75c1.243 0 3.25 2.75 3.25 7.25ZM5 12h14" stroke="currentColor" stroke-linecap="round" stroke-linejoin="round"/></svg><svg fill="none" viewBox="0 0 16 16" id="heartSmallBold" xmlns="http://www.w3.org/2000/svg"><path d="m7.997 4.822-.467.416h.933l-.466-.416ZM4.208 4.44l-.396-.484.396.484Zm-.43 3.82-.486.393.028.035.033.03.425-.459Zm4.219 3.907-.425.458.425.393.424-.393-.424-.458Zm4.219-3.908.424.459.033-.03.028-.035-.485-.394Zm-.43-3.82.389-.488-.39.489Zm-3.323-.033c-1.153-1.291-3.14-1.686-4.65-.45l.791.967c.912-.746 2.147-.558 2.926.315l.933-.832Zm-4.65-.45c-1.47 1.203-1.694 3.251-.52 4.697l.97-.787c-.728-.898-.61-2.164.341-2.943l-.792-.967Zm-.46 4.762 4.219 3.907.85-.917-4.22-3.907-.849.917Zm5.068 3.907 4.22-3.907-.85-.917-4.219 3.907.85.917Zm4.28-3.972c1.167-1.439.98-3.503-.527-4.702l-.778.978c.957.762 1.069 2.032.334 2.937l.971.787Zm-.527-4.702c-1.524-1.214-3.486-.841-4.643.455l.932.832c.775-.868 1.994-1.057 2.933-.31l.778-.977Z" fill="currentColor"/></svg><svg fill="none" viewBox="0 0 16 16" id="helpSmall" xmlns="http://www.w3.org/2000/svg"><path d="M8 12.834a4.833 4.833 0 1 0 0-9.667 4.833 4.833 0 0 0 0 9.667Z" stroke="currentColor" stroke-linecap="round" stroke-linejoin="round"/><path d="M8 10.166a2.167 2.167 0 1 0 0-4.333 2.167 2.167 0 0 0 0 4.333ZM4.667 11.334l1.666-1.667M11.333 11.334 9.667 9.667M6.333 6.334 4.667 4.667M9.667 6.334l1.666-1.667" stroke="currentColor" stroke-linecap="round" stroke-linejoin="round"/></svg><svg fill="none" viewBox="0 0 16 16" id="house" xmlns="http://www.w3.org/2000/svg"><path d="M4.5 12.834h7c.737 0 1.334-.597 1.334-1.334v-5L8 3.167 3.167 6.5v5c0 .737.597 1.334 1.333 1.334Z" stroke="currentColor" stroke-linecap="round"/><path d="M6.5 10.5c0-.737.597-1.334 1.333-1.334h.334c.736 0 1.333.597 1.333 1.333v2.334h-3v-2.334Z" stroke="currentColor" stroke-linecap="round"/></svg><svg fill="none" stroke="currentColor" stroke-linecap="square" viewBox="0 0 24 25" id="image" xmlns="http://www.w3.org/2000/svg"><path d="M11.25 19.75h-4.5a2 2 0 0 1-2-2V16.5m0 0V7.25a2 2 0 0 1 2-2h10.5a2 2 0 0 1 2 2v5.5l-2.664-2.81A2 2 0 0 0 13.5 10l-.01.013c-.093.121-1.529 1.978-2.565 3.296M4.75 16.5l2.746-3.493c.779-.99 3.09-.067 3.09-.067l.34.37m0 0 1.324 1.44M17 15.25v4.5M19.25 17.5h-4.5"/></svg><svg fill="none" viewBox="0 0 16 16" id="infoSmall" xmlns="http://www.w3.org/2000/svg"><path d="M8 8v1.75" stroke="currentColor" stroke-linecap="square"/><path d="M8 6.667a.667.667 0 1 0 0-1.334.667.667 0 0 0 0 1.334Z" fill="currentColor"/><path d="M8 12.833a4.833 4.833 0 1 0 0-9.666 4.833 4.833 0 0 0 0 9.666Z" stroke="currentColor" stroke-linecap="square"/></svg><svg fill="none" viewBox="0 0 24 24" id="information" xmlns="http://www.w3.org/2000/svg"><path d="M12 15v-3h-1.5" stroke="currentColor" stroke-linecap="square" stroke-linejoin="bevel"/><path d="M12 10a1 1 0 1 0 0-2 1 1 0 0 0 0 2Z" fill="currentColor"/><path d="M12 19.25a7.25 7.25 0 1 0 0-14.5 7.25 7.25 0 0 0 0 14.5Z" stroke="currentColor" stroke-linecap="square" stroke-linejoin="round"/></svg><svg fill="none" viewBox="0 0 24 24" id="key"><path stroke="currentColor" stroke-linecap="round" stroke-linejoin="round" d="M15 13.25a4.25 4.25 0 1 0-4.154-3.346L4.75 16v3.25H8l.75-.75v-1.75h1.75l1.25-1.25v-1.75h1.75l.596-.596c.291.063.594.096.904.096Z"/><path stroke="currentColor" d="M16.5 8a.5.5 0 1 1-1 0 .5.5 0 0 1 1 0Z"/></svg><svg fill="none" viewBox="0 0 24 24" id="keys" xmlns="http://www.w3.org/2000/svg"><path d="M10.25 13.063A4.252 4.252 0 0 0 9 4.75a4.25 4.25 0 0 0-1.25 8.313V18a1.25 1.25 0 1 0 2.5 0v-4.937Z" stroke="currentColor" stroke-linecap="round" stroke-linejoin="round"/><path d="m12 12 5.345 3.074a1.247 1.247 0 0 0 1.734-.48c.35-.628.142-1.431-.465-1.793L13.5 9.5M9 8v.01" stroke="currentColor" stroke-linecap="round" stroke-linejoin="round"/></svg><svg fill="none" viewBox="0 0 24 24" id="layers" xmlns="http://www.w3.org/2000/svg"><path d="M12 4.75 19.25 9 12 13.25 4.75 9 12 4.75Z" stroke="currentColor" stroke-linecap="round" stroke-linejoin="round"/><path d="m9.25 12-4.5 3L12 19.25 19.25 15l-4.578-3" stroke="currentColor" stroke-linecap="round" stroke-linejoin="round"/></svg><svg fill="none" viewBox="0 0 24 24" id="lightning" xmlns="http://www.w3.org/2000/svg"><path d="M10.75 13.25h-4l6.5-8.5v6h4l-6.5 8.5v-6Z" stroke="currentColor" stroke-linecap="round" stroke-linejoin="round"/></svg><svg fill="none" viewBox="0 0 16 17" id="link" xmlns="http://www.w3.org/2000/svg"><path d="M7.333 9.524h1a3.167 3.167 0 1 0 0-6.334H6a2.833 2.833 0 0 0-2.833 2.834v.833" stroke="currentColor" stroke-linecap="round" stroke-linejoin="round"/><path d="M8.667 6.523h-1a3.167 3.167 0 1 0 0 6.334H10a2.833 2.833 0 0 0 2.833-2.834V9.19" stroke="currentColor" stroke-linecap="round" stroke-linejoin="round"/></svg><svg fill="none" viewBox="0 0 16 16" id="loading" xmlns="http://www.w3.org/2000/svg"><circle cx="8" cy="8" r="7" stroke="currentColor" stroke-opacity=".25"/><path d="M14 8a6 6 0 0 1-6 6v2a8 8 0 0 0 8-8h-2Z" fill="currentColor"/></svg><svg fill="none" viewBox="0 0 16 16" id="naSmall" xmlns="http://www.w3.org/2000/svg"><circle cx="8" cy="8" r="6" fill="currentColor"/><path d="M11.182 8H4.818" stroke="#fff" stroke-linecap="square" stroke-linejoin="round"/></svg><svg fill="none" viewBox="0 0 16 16" id="notSupportedMini" xmlns="http://www.w3.org/2000/svg"><path d="M11.5 12.834h-7A1.333 1.333 0 0 1 3.167 11.5v-7c0-.736.597-1.333 1.333-1.333h7c.737 0 1.334.597 1.334 1.333v7c0 .737-.597 1.334-1.334 1.334ZM6.5 9.5l3-3" stroke="currentColor" stroke-linecap="square"/></svg><svg fill="none" viewBox="0 0 24 24" id="organization" xmlns="http://www.w3.org/2000/svg"><path d="M7.752 7.775h1.5m-1.5 3h1.5m5.5 3h1.5m-1.5-3h1.5m-4 8.475h6a1 1 0 0 0 1-1v-9.5a1 1 0 0 0-1-1h-5.5m-.5 11.5V5.75a1 1 0 0 0-1-1h-5.5a1 1 0 0 0-1 1v12.5a1 1 0 0 0 1 1h6.5Z" stroke="currentColor" stroke-linecap="round" stroke-linejoin="round"/></svg><svg fill="none" viewBox="0 0 24 24" id="package" xmlns="http://www.w3.org/2000/svg"><path stroke="currentColor" stroke-linecap="round" stroke-linejoin="round" d="M5.75 8.87 12 12.25M5.75 8.87v7L12 19.25M5.75 8.87l3.125-1.56m9.375 1.56L12 5.75 8.875 7.31m9.375 1.56v7L12 19.25m6.25-10.38-3.125 1.69M12 12.25v7m0-7 3.125-1.69m0 0-6.25-3.25"/></svg><svg fill="none" viewBox="0 0 24 24" id="pencilAlt" xmlns="http://www.w3.org/2000/svg"><path d="M7.75 19.25V12L12 4.75 16.25 12v7.25" stroke="currentColor" stroke-linecap="round" stroke-linejoin="round"/><path d="M10.25 8S10.5 9.25 12 9.25 13.75 8 13.75 8M16 13.75H8" stroke="currentColor" stroke-linecap="round" stroke-linejoin="round"/></svg><svg fill="none" viewBox="0 0 16 16" id="pencilSmall" xmlns="http://www.w3.org/2000/svg"><path d="M3.167 12.833 6 12.167l6.633-6.633a.667.667 0 0 0 0-.943l-1.224-1.224a.667.667 0 0 0-.943 0L3.833 10l-.666 2.833Z" stroke="currentColor" stroke-linecap="square"/><path d="m9.349 4.693 2 2" stroke="currentColor" stroke-linecap="round" stroke-linejoin="round"/></svg><svg fill="none" viewBox="0 0 24 24" id="phone" xmlns="http://www.w3.org/2000/svg"><path d="M15.25 19.25h-6.5a2 2 0 0 1-2-2V6.75a2 2 0 0 1 2-2h6.5a2 2 0 0 1 2 2v10.5a2 2 0 0 1-2 2ZM11.75 16.75h.5" stroke="currentColor" stroke-linecap="round" stroke-linejoin="round"/></svg><svg fill="none" viewBox="0 0 24 24" id="plug" xmlns="http://www.w3.org/2000/svg"><path d="M6.75 11.343V7.75h10.5v3.593a4 4 0 0 1-1.172 2.829L14.25 16v2.25a1 1 0 0 1-1 1h-2.5a1 1 0 0 1-1-1V16l-1.828-1.828a4 4 0 0 1-1.172-2.829ZM9.75 7.5V4.75M14.25 7.5V4.75" stroke="currentColor" stroke-linecap="square" stroke-linejoin="round"/></svg><svg fill="none" viewBox="0 0 24 24" id="plus" xmlns="http://www.w3.org/2000/svg"><path d="M12 9v6M15 12H9" stroke="currentColor" stroke-linecap="square" stroke-linejoin="round"/><rect x="4.75" y="4.75" width="14.5" height="14.5" rx="3.25" stroke="currentColor"/></svg><svg fill="none" viewBox="0 0 24 24" id="rocket" xmlns="http://www.w3.org/2000/svg"><path d="M13.456 6.855a8 8 0 0 1 5.408-2.105h.386v.386a8 8 0 0 1-2.105 5.408l-3.075 3.352L13 19.253 4.75 10.75l5.354-.82 3.352-3.075ZM7.25 16.75l-2.5 2.5M9.25 18.75l-.5.5M5.25 14.75l-.5.5" stroke="currentColor" stroke-linecap="square"/></svg><svg fill="none" viewBox="0 0 24 24" id="searchArea" xmlns="http://www.w3.org/2000/svg"><path d="M12 16a4 4 0 0 0 4-4h-1.5a2.5 2.5 0 0 1-2.5 2.5V16Zm0-6.5a2.5 2.5 0 0 1 2.5 2.5H16a4 4 0 0 0-4-4v1.5ZM12 8a4 4 0 0 0-4 4h1.5A2.5 2.5 0 0 1 12 9.5V8Zm0 6.5A2.5 2.5 0 0 1 9.5 12H8a4 4 0 0 0 4 4v-1.5Z" fill="currentColor"/><path d="m14.5 14.5 2.75 2.75M4.75 8.25v-1.5a2 2 0 0 1 2-2h1.5M4.75 15.75v1.5a2 2 0 0 0 2 2h1.5M19.25 8.25v-1.5a2 2 0 0 0-2-2h-1.5" stroke="currentColor" stroke-linecap="round" stroke-linejoin="round"/></svg><svg fill="none" viewBox="0 0 16 16" id="sparkles" xmlns="http://www.w3.org/2000/svg"><path d="M11.333 3.167c0 .764-.735 1.5-1.5 1.5.765 0 1.5.735 1.5 1.5 0-.765.736-1.5 1.5-1.5-.764 0-1.5-.736-1.5-1.5ZM11.333 9.834c0 .764-.735 1.5-1.5 1.5.765 0 1.5.735 1.5 1.5 0-.765.736-1.5 1.5-1.5-.764 0-1.5-.736-1.5-1.5ZM6 5.167C6 6.61 4.611 8 3.167 8 4.61 8 6 9.389 6 10.833 6 9.39 7.39 8 8.833 8 7.39 8 6 6.61 6 5.167Z" stroke="currentColor" stroke-linecap="round"/></svg><svg fill="none" viewBox="0 0 24 24" id="stack" xmlns="http://www.w3.org/2000/svg"><path d="M10.75 7.75a2 2 0 0 1 2-2h4.5a2 2 0 0 1 2 2v8.5a2 2 0 0 1-2 2h-4.5a2 2 0 0 1-2-2v-8.5Z" stroke="currentColor" stroke-linecap="round" stroke-linejoin="round"/><path d="M10.25 8.5a.75.75 0 0 0 0-1.5v1.5Zm0 9.5a.75.75 0 0 0 0-1.5V18Zm-.5-9.5h.5V7h-.5v1.5Zm.5 8h-.5V18h.5v-1.5ZM8.5 15.25v-5.5H7v5.5h1.5Zm1.25 1.25c-.69 0-1.25-.56-1.25-1.25H7A2.75 2.75 0 0 0 9.75 18v-1.5Zm0-9.5A2.75 2.75 0 0 0 7 9.75h1.5c0-.69.56-1.25 1.25-1.25V7Z" fill="currentColor"/><path d="M7.25 9.5a.75.75 0 0 0 0-1.5v1.5Zm0 7.5a.75.75 0 0 0 0-1.5V17Zm-.5-7.5h.5V8h-.5v1.5Zm.5 6h-.5V17h.5v-1.5ZM5.5 14.25v-3.5H4v3.5h1.5Zm1.25 1.25c-.69 0-1.25-.56-1.25-1.25H4A2.75 2.75 0 0 0 6.75 17v-1.5Zm0-7.5A2.75 2.75 0 0 0 4 10.75h1.5c0-.69.56-1.25 1.25-1.25V8Z" fill="currentColor"/></svg><svg fill="none" viewBox="0 0 24 24" id="status" xmlns="http://www.w3.org/2000/svg"><path d="M15.75 5.75c1.959 1.298 3.5 3.724 3.5 6.25s-1.541 4.952-3.5 6.25M8.25 5.75C6.291 7.048 4.75 9.474 4.75 12s1.541 4.952 3.5 6.25" stroke="currentColor" stroke-linecap="round" stroke-linejoin="round"/><path d="M14.75 8.75c.772.77 1.5 2.074 1.5 3.25 0 1.176-.728 2.48-1.5 3.25M9.25 8.75c-.772.77-1.5 2.074-1.5 3.25 0 1.176.728 2.48 1.5 3.25" stroke="currentColor" stroke-linecap="round" stroke-linejoin="round"/><path d="M12.5 12a.5.5 0 1 1-1 0 .5.5 0 0 1 1 0Z" stroke="currentColor" stroke-linecap="round" stroke-linejoin="round"/></svg><svg fill="none" viewBox="0 0 24 24" id="temperature" xmlns="http://www.w3.org/2000/svg"><path d="M10.75 4.75a2 2 0 0 0-2 2v4.644a4.25 4.25 0 1 0 4.5 0V6.75a2 2 0 0 0-2-2h-.5ZM17.25 4.75h-.5M17.25 7.75h-.5M17.25 10.75h-.5M11 15.25V13" stroke="currentColor" stroke-linecap="round" stroke-linejoin="round"/></svg><svg fill="none" viewBox="0 0 24 24" id="terminal"><rect width="14.5" height="14.5" x="4.75" y="4.75" stroke="currentColor" stroke-linecap="round" stroke-linejoin="round" rx="2"/><path stroke="currentColor" stroke-linecap="round" stroke-linejoin="round" d="m8.75 10.75 2.5 2.25-2.5 2.25"/></svg><svg fill="none" viewBox="0 0 24 24" id="time" xmlns="http://www.w3.org/2000/svg"><path d="M18.25 13a6.25 6.25 0 1 1-12.5 0 6.25 6.25 0 0 1 12.5 0ZM16.5 8.5l.75-.75M12 4.75h2.25M12 6.5V4.75 6.5Zm0-1.75H9.75 12ZM12 9.75v3.5" stroke="currentColor" stroke-linecap="round" stroke-linejoin="round"/></svg><svg fill="none" viewBox="0 0 24 24" id="toggleRight" xmlns="http://www.w3.org/2000/svg"><path d="M10 17.25h4a5.25 5.25 0 1 0 0-10.5h-4a5.25 5.25 0 1 0 0 10.5Z" stroke="currentColor" stroke-linecap="round" stroke-linejoin="round"/><path d="M16.25 12a2.25 2.25 0 1 1-4.5 0 2.25 2.25 0 0 1 4.5 0Z" stroke="currentColor" stroke-linecap="round" stroke-linejoin="round"/></svg><svg fill="none" viewBox="0 0 24 24" id="triangleCircle" xmlns="http://www.w3.org/2000/svg"><g clip-path="url(#cxa)" stroke="currentColor" stroke-linecap="round" stroke-linejoin="round"><path d="M15.755 9.098a5.251 5.251 0 1 1-4.966 9.107"/><path d="M4.75 14.25 10 4.75l5.25 9.5H4.75Z"/></g><defs><clipPath id="cxa"><rect width="24" height="24" fill="#fff"/></clipPath></defs></svg><svg fill="none" viewBox="0 0 24 24" id="update" xmlns="http://www.w3.org/2000/svg"><path d="M12 4.75v1.5M17.127 6.873l-1.061 1.061M19.25 12h-1.5M17.127 17.127l-1.061-1.061M12 17.75v1.5M7.934 16.066l-1.06 1.06M6.25 12h-1.5M7.934 7.934l-1.06-1.06" stroke="currentColor" stroke-linecap="square" stroke-linejoin="round"/></svg><svg fill="none" viewBox="0 0 24 24" id="updates" xmlns="http://www.w3.org/2000/svg"><path d="M12.5 12a.5.5 0 1 1-1 0 .5.5 0 0 1 1 0Z" stroke="currentColor" stroke-linecap="square"/><path d="M9.25 15.25c-2.04-1.688-1.914-4.75 0-6.5M14.767 15.25c2.04-1.688 1.914-4.75 0-6.5M7.25 17.25c-3.336-3.336-3.32-7.172 0-10.5M16.754 17.25c3.336-3.336 3.32-7.172 0-10.5" stroke="currentColor" stroke-linecap="square"/></svg><svg fill="none" viewBox="0 0 16 17" id="upload" xmlns="http://www.w3.org/2000/svg"><path d="M3.167 9.924v1a2 2 0 0 0 2 2h5.666a2 2 0 0 0 2-2v-1M8 9.591V3.424M5.833 5.59 8 3.258l2.167 2.334" stroke="currentColor" stroke-linecap="square"/></svg><svg fill="none" viewBox="0 0 24 24" id="userCircle" xmlns="http://www.w3.org/2000/svg"><path d="M18.5 12a6.5 6.5 0 0 1-6.5 6.5V20a8 8 0 0 0 8-8h-1.5ZM12 18.5A6.5 6.5 0 0 1 5.5 12H4a8 8 0 0 0 8 8v-1.5ZM5.5 12A6.5 6.5 0 0 1 12 5.5V4a8 8 0 0 0-8 8h1.5ZM12 5.5a6.5 6.5 0 0 1 6.5 6.5H20a8 8 0 0 0-8-8v1.5Z" fill="currentColor"/><path d="M13.5 10a1.5 1.5 0 0 1-1.5 1.5V13a3 3 0 0 0 3-3h-1.5ZM12 11.5a1.5 1.5 0 0 1-1.5-1.5H9a3 3 0 0 0 3 3v-1.5ZM10.5 10A1.5 1.5 0 0 1 12 8.5V7a3 3 0 0 0-3 3h1.5ZM12 8.5a1.5 1.5 0 0 1 1.5 1.5H15a3 3 0 0 0-3-3v1.5ZM6.621 16.52a.75.75 0 1 0 1.153.96l-1.153-.96Zm9.606.96a.75.75 0 1 0 1.152-.96l-1.152.96Zm-8.453 0A5.487 5.487 0 0 1 12 15.5V14a6.987 6.987 0 0 0-5.379 2.52l1.153.96ZM12 15.5c1.698 0 3.216.769 4.227 1.98l1.152-.96A6.987 6.987 0 0 0 12 14v1.5Z" fill="currentColor"/></svg><svg fill="none" viewBox="0 0 24 24" id="warning"><path stroke="currentColor" stroke-linecap="round" stroke-linejoin="round" d="m4.952 16.354 5.263-10.497c.738-1.472 2.839-1.472 3.576 0l5.258 10.497a2 2 0 0 1-1.788 2.896H6.741a2 2 0 0 1-1.789-2.896Z"/><path stroke="currentColor" stroke-linecap="round" stroke-linejoin="round" d="M12 10v2"/><circle cx="12" cy="16" r="1" fill="currentColor"/></svg><svg fill="none" viewBox="0 0 24 24" id="wrench" xmlns="http://www.w3.org/2000/svg"><path d="m14.464 8.95-.53.53.53-.53Zm0-1.414-.53-.53.53.53Zm2.37-2.37.53.53-.205-1.207-.324.676Zm-5.669 5.669.53.53.376-.376-.23-.479-.676.325Zm-6.001 6-.53-.53.53.53Zm0 2 .53-.53-.53.53Zm2 0-.53-.53.53.53Zm6.001-6 .324-.677-.479-.23-.375.376.53.53Zm5.68-5.649.678-.32-1.209-.21.53.53ZM16.48 9.551l-.53-.53.53.53Zm-1.414 0 .53-.53-.53.53Zm-.071-1.132a.25.25 0 0 1 0-.353l-1.061-1.06a1.75 1.75 0 0 0 0 2.474l1.06-1.06Zm0-.353 2.37-2.37-1.06-1.061-2.371 2.37 1.06 1.06Zm2.164-3.577A4.983 4.983 0 0 0 14.999 4v1.5c.543 0 1.055.123 1.511.342l.649-1.353ZM14.999 4a5 5 0 0 0-5 5h1.5A3.5 3.5 0 0 1 15 5.5V4Zm-5 5c0 .772.176 1.504.49 2.159l1.352-.649A3.484 3.484 0 0 1 11.5 9H10Zm.636 1.304-6.001 6.002 1.06 1.06 6.001-6.001-1.06-1.06Zm-6.001 6.002a2.164 2.164 0 0 0 0 3.06l1.06-1.06a.664.664 0 0 1 0-.94l-1.06-1.06Zm0 3.06a2.164 2.164 0 0 0 3.06 0l-1.06-1.06c-.26.259-.68.259-.94 0l-1.06 1.06Zm3.06 0 6.001-6.001-1.06-1.06-6.001 6 1.06 1.061Zm5.147-5.855A4.983 4.983 0 0 0 15 14v-1.5a3.484 3.484 0 0 1-1.51-.342l-.649 1.353ZM15 14a5 5 0 0 0 5-5h-1.5a3.5 3.5 0 0 1-3.5 3.5V14Zm5-5c0-.762-.17-1.486-.477-2.134l-1.356.64c.213.453.333.958.333 1.494H20Zm-1.686-2.344L15.95 9.021l1.06 1.06 2.365-2.364-1.06-1.06ZM15.95 9.021a.25.25 0 0 1-.354 0l-1.06 1.06a1.75 1.75 0 0 0 2.474 0l-1.06-1.06Zm-.354 0-.601-.602-1.061 1.061.601.601 1.061-1.06Z" fill="currentColor"/></svg></defs></svg>